<svg data-v-423bf9ae="" xmlns="http://www.w3.org/2000/svg" viewBox="0 0 356.89824417607696 60" class="font"><!----><!----><!----><g data-v-423bf9ae="" id="fc18fa24-3b53-4e1f-b6f2-58e40d7e70c0" fill="black" transform="matrix(4.846526984440009,0,0,4.846526984440009,-1.0177646740758348,-35.137319683515756)"><path d="M3.92 9.59L3.92 17.18L2.52 17.18L2.52 9.59L0.21 9.59L0.21 8.43L6.23 8.43L6.23 9.59L3.92 9.59ZM9.27 16.21L9.27 16.21Q9.84 16.21 10.39 16.14L10.39 16.14L10.39 16.14Q10.93 16.06 11.69 15.88L11.69 15.88L11.87 16.90L11.87 16.90Q11.35 17.09 10.59 17.21L10.59 17.21L10.59 17.21Q9.83 17.32 9.02 17.32L9.02 17.32L9.02 17.32Q7.92 17.32 7.35 17.00L7.35 17.00L7.35 17.00Q6.78 16.69 6.54 15.92L6.54 15.92L6.54 15.92Q6.30 15.15 6.30 13.68L6.30 13.68L6.30 13.68Q6.30 12.26 6.57 11.49L6.57 11.49L6.57 11.49Q6.85 10.71 7.48 10.37L7.48 10.37L7.48 10.37Q8.11 10.04 9.25 10.04L9.25 10.04L9.25 10.04Q10.39 10.04 10.98 10.22L10.98 10.22L10.98 10.22Q11.58 10.40 11.82 10.84L11.82 10.84L11.82 10.84Q12.05 11.28 12.05 12.14L12.05 12.14L12.05 12.14Q12.05 13.16 11.76 13.61L11.76 13.61L11.76 13.61Q11.47 14.06 10.61 14.21L10.61 14.21L10.61 14.21Q9.74 14.36 7.77 14.36L7.77 14.36L7.77 16.06L7.77 16.06Q8.33 16.21 9.27 16.21L9.27 16.21ZM8.93 11.19L8.93 11.19Q8.26 11.19 8.02 11.35L8.02 11.35L8.02 11.35Q7.77 11.52 7.77 12.00L7.77 12.00L7.77 13.45L9.62 13.45L9.62 13.45Q10.30 13.45 10.55 13.29L10.55 13.29L10.55 13.29Q10.79 13.12 10.79 12.64L10.79 12.64L10.79 11.19L8.93 11.19ZM13.03 17.18L13.03 17.18ZM13.96 19.63L13.96 19.63Q13.34 19.63 12.88 19.47L12.88 19.47L12.96 18.66L12.96 18.66Q13.55 18.66 13.83 18.60L13.83 18.60L13.83 18.60Q14.10 18.54 14.20 18.36L14.20 18.36L14.20 18.36Q14.29 18.19 14.29 17.81L14.29 17.81L14.29 10.28L15.69 10.07L15.69 18.02L15.69 18.02Q15.69 18.84 15.27 19.24L15.27 19.24L15.27 19.24Q14.85 19.63 13.96 19.63L13.96 19.63ZM15.01 8.96L15.01 8.96Q14.49 8.96 14.32 8.79L14.32 8.79L14.32 8.79Q14.14 8.61 14.14 8.12L14.14 8.12L14.14 8.12Q14.14 7.62 14.32 7.43L14.32 7.43L14.32 7.43Q14.50 7.25 15.01 7.25L15.01 7.25L15.01 7.25Q15.50 7.25 15.67 7.43L15.67 7.43L15.67 7.43Q15.85 7.62 15.85 8.12L15.85 8.12L15.85 8.12Q15.85 8.61 15.68 8.79L15.68 8.79L15.68 8.79Q15.51 8.96 15.01 8.96L15.01 8.96ZM20.82 10.04L20.82 10.04Q21.78 10.04 22.34 10.23L22.34 10.23L22.34 10.23Q22.90 10.42 23.15 10.84L23.15 10.84L23.15 10.84Q23.39 11.27 23.39 12.00L23.39 12.00L23.39 17.18L22.75 17.18L22.37 16.48L22.37 16.48Q21.87 16.91 21.26 17.12L21.26 17.12L21.26 17.12Q20.65 17.32 19.87 17.32L19.87 17.32L19.87 17.32Q18.70 17.32 18.21 16.84L18.21 16.84L18.21 16.84Q17.72 16.35 17.72 15.22L17.72 15.22L17.72 15.22Q17.72 14.20 18.00 13.75L18.00 13.75L18.00 13.75Q18.28 13.30 19.10 13.15L19.10 13.15L19.10 13.15Q19.92 12.99 21.78 12.99L21.78 12.99L21.99 12.99L21.99 11.30L21.99 11.30Q21.48 11.14 20.58 11.14L20.58 11.14L20.58 11.14Q19.46 11.14 18.21 11.48L18.21 11.48L18.03 10.46L18.03 10.46Q18.55 10.28 19.32 10.16L19.32 10.16L19.32 10.16Q20.09 10.04 20.82 10.04L20.82 10.04ZM20.87 16.24L20.87 16.24Q21.53 16.24 21.76 16.07L21.76 16.07L21.76 16.07Q21.99 15.90 21.99 15.43L21.99 15.43L21.99 13.90L20.13 13.90L20.13 13.90Q19.47 13.90 19.24 14.07L19.24 14.07L19.24 14.07Q19.00 14.24 19.00 14.71L19.00 14.71L19.00 16.24L20.87 16.24ZM25.37 12.05L25.37 12.05Q25.37 10.98 26.00 10.47L26.00 10.47L26.00 10.47Q26.64 9.97 28.01 9.97L28.01 9.97L28.01 9.97Q29.23 9.97 30.34 10.28L30.34 10.28L30.14 11.30L30.14 11.30Q29.79 11.20 29.32 11.14L29.32 11.14L29.32 11.14Q28.84 11.07 28.43 11.07L28.43 11.07L28.43 11.07Q27.59 11.07 26.84 11.20L26.84 11.20L26.84 12.85L26.84 12.85Q28.52 13.09 29.31 13.34L29.31 13.34L29.31 13.34Q30.10 13.58 30.39 13.99L30.39 13.99L30.39 13.99Q30.69 14.41 30.69 15.20L30.69 15.20L30.69 15.20Q30.69 16.00 30.40 16.48L30.40 16.48L30.40 16.48Q30.11 16.95 29.47 17.17L29.47 17.17L29.47 17.17Q28.83 17.39 27.75 17.39L27.75 17.39L27.75 17.39Q26.54 17.39 25.21 16.98L25.21 16.98L25.44 15.86L25.44 15.86Q26.52 16.28 27.73 16.28L27.73 16.28L27.73 16.28Q28.15 16.28 28.48 16.24L28.48 16.24L28.48 16.24Q28.80 16.20 29.22 16.09L29.22 16.09L29.22 14.43L29.22 14.43Q27.41 14.18 26.64 13.94L26.64 13.94L26.64 13.94Q25.87 13.71 25.62 13.31L25.62 13.31L25.62 13.31Q25.37 12.91 25.37 12.05L25.37 12.05ZM35.67 15.90L35.67 15.90Q36.23 16.04 36.98 16.14L36.98 16.14L36.98 16.14Q37.73 16.23 38.42 16.23L38.42 16.23L38.42 16.23Q39.13 16.23 40.00 16.14L40.00 16.14L40.00 13.54L38.67 13.44L38.67 13.44Q37.38 13.34 36.74 13.11L36.74 13.11L36.74 13.11Q36.09 12.88 35.83 12.38L35.83 12.38L35.83 12.38Q35.57 11.89 35.57 10.95L35.57 10.95L35.57 10.95Q35.57 9.94 35.83 9.35L35.83 9.35L35.83 9.35Q36.09 8.75 36.67 8.48L36.67 8.48L36.67 8.48Q37.25 8.22 38.23 8.22L38.23 8.22L38.23 8.22Q39.65 8.22 41.06 8.48L41.06 8.48L40.88 9.59L40.88 9.59Q39.76 9.38 38.32 9.38L38.32 9.38L38.32 9.38Q37.60 9.38 37.10 9.45L37.10 9.45L37.10 12.08L38.65 12.18L38.65 12.18Q39.77 12.25 40.39 12.51L40.39 12.51L40.39 12.51Q41.01 12.77 41.27 13.31L41.27 13.31L41.27 13.31Q41.52 13.85 41.52 14.80L41.52 14.80L41.52 14.80Q41.52 15.78 41.22 16.34L41.22 16.34L41.22 16.34Q40.91 16.90 40.21 17.14L40.21 17.14L40.21 17.14Q39.51 17.39 38.29 17.39L38.29 17.39L38.29 17.39Q36.81 17.39 35.46 17.05L35.46 17.05L35.67 15.90ZM43.34 17.18L43.34 7.98L44.72 7.87L44.72 10.64L44.72 10.64Q45.16 10.33 45.70 10.19L45.70 10.19L45.70 10.19Q46.24 10.04 46.97 10.04L46.97 10.04L46.97 10.04Q47.95 10.04 48.45 10.34L48.45 10.34L48.45 10.34Q48.96 10.64 48.96 11.23L48.96 11.23L48.96 17.18L47.56 17.18L47.56 11.19L45.93 11.19L45.93 11.19Q45.25 11.19 45.00 11.35L45.00 11.35L45.00 11.35Q44.74 11.52 44.74 12.00L44.74 12.00L44.74 17.18L43.34 17.18ZM53.96 16.21L53.96 16.21Q54.53 16.21 55.08 16.14L55.08 16.14L55.08 16.14Q55.62 16.06 56.38 15.88L56.38 15.88L56.56 16.90L56.56 16.90Q56.04 17.09 55.28 17.21L55.28 17.21L55.28 17.21Q54.52 17.32 53.70 17.32L53.70 17.32L53.70 17.32Q52.61 17.32 52.04 17.00L52.04 17.00L52.04 17.00Q51.46 16.69 51.23 15.92L51.23 15.92L51.23 15.92Q50.99 15.15 50.99 13.68L50.99 13.68L50.99 13.68Q50.99 12.26 51.26 11.49L51.26 11.49L51.26 11.49Q51.53 10.71 52.16 10.37L52.16 10.37L52.16 10.37Q52.79 10.04 53.94 10.04L53.94 10.04L53.94 10.04Q55.08 10.04 55.67 10.22L55.67 10.22L55.67 10.22Q56.27 10.40 56.50 10.84L56.50 10.84L56.50 10.84Q56.74 11.28 56.74 12.14L56.74 12.14L56.74 12.14Q56.74 13.16 56.45 13.61L56.45 13.61L56.45 13.61Q56.15 14.06 55.29 14.21L55.29 14.21L55.29 14.21Q54.43 14.36 52.46 14.36L52.46 14.36L52.46 16.06L52.46 16.06Q53.02 16.21 53.96 16.21L53.96 16.21ZM53.62 11.19L53.62 11.19Q52.95 11.19 52.70 11.35L52.70 11.35L52.70 11.35Q52.46 11.52 52.46 12.00L52.46 12.00L52.46 13.45L54.31 13.45L54.31 13.45Q54.99 13.45 55.24 13.29L55.24 13.29L55.24 13.29Q55.48 13.12 55.48 12.64L55.48 12.64L55.48 11.19L53.62 11.19ZM62.05 11.14L60.80 11.14L60.80 16.14L60.80 16.14Q61.31 16.20 61.80 16.21L61.80 16.21L61.71 17.16L61.71 17.16Q60.93 17.32 60.44 17.32L60.44 17.32L60.44 17.32Q59.91 17.32 59.65 17.06L59.65 17.06L59.65 17.06Q59.40 16.80 59.40 16.27L59.40 16.27L59.40 11.14L58.42 11.14L58.42 10.18L59.40 10.18L59.40 8.68L60.80 8.33L60.80 10.18L62.05 10.18L62.05 11.14ZM67.00 11.14L65.76 11.14L65.76 16.14L65.76 16.14Q66.26 16.20 66.75 16.21L66.75 16.21L66.67 17.16L66.67 17.16Q65.88 17.32 65.39 17.32L65.39 17.32L65.39 17.32Q64.86 17.32 64.61 17.06L64.61 17.06L64.61 17.06Q64.36 16.80 64.36 16.27L64.36 16.27L64.36 11.14L63.38 11.14L63.38 10.18L64.36 10.18L64.36 8.68L65.76 8.33L65.76 10.18L67.00 10.18L67.00 11.14ZM72.46 10.18L73.85 10.18L71.85 16.76L71.85 16.76Q71.51 17.86 71.13 18.48L71.13 18.48L71.13 18.48Q70.76 19.10 70.24 19.36L70.24 19.36L70.24 19.36Q69.72 19.63 68.94 19.63L68.94 19.63L68.94 19.63Q68.25 19.63 67.72 19.47L67.72 19.47L67.77 18.73L68.74 18.61L68.74 18.61Q69.29 18.54 69.57 18.40L69.57 18.40L69.57 18.40Q69.86 18.27 70.04 17.99L70.04 17.99L70.04 17.99Q70.22 17.71 70.38 17.18L70.38 17.18L70.50 16.76L69.72 16.76L67.72 10.18L69.10 10.18L70.71 15.57L70.85 15.57L72.46 10.18Z"></path></g><!----><!----></svg>